<mxfile host="app.diagrams.net" modified="2023-02-24T17:59:25.773Z" agent="5.0 (Windows NT 10.0; Win64; x64) AppleWebKit/537.36 (KHTML, like Gecko) Chrome/110.0.0.0 Safari/537.36" etag="P8i96BAkdCseJjqYqhyb" version="20.8.20" type="github">
  <diagram name="Page-1" id="cyIloUWgAy5ogOtHbnKH">
    <mxGraphModel dx="2163" dy="694" grid="1" gridSize="10" guides="1" tooltips="1" connect="1" arrows="1" fold="1" page="1" pageScale="1" pageWidth="850" pageHeight="1100" background="none" math="0" shadow="0">
      <root>
        <mxCell id="0" />
        <mxCell id="1" parent="0" />
        <mxCell id="Kf_SSCEO67K-IDZlS5Hx-94" value="" style="shape=table;startSize=0;container=1;collapsible=0;childLayout=tableLayout;strokeColor=default;strokeWidth=1;fillColor=none;opacity=50;" vertex="1" parent="1">
          <mxGeometry x="-82" y="170" width="370" height="340" as="geometry" />
        </mxCell>
        <mxCell id="Kf_SSCEO67K-IDZlS5Hx-95" value="" style="shape=tableRow;horizontal=0;startSize=0;swimlaneHead=0;swimlaneBody=0;strokeColor=inherit;top=0;left=0;bottom=0;right=0;collapsible=0;dropTarget=0;fillColor=none;points=[[0,0.5],[1,0.5]];portConstraint=eastwest;strokeWidth=0;opacity=0;" vertex="1" parent="Kf_SSCEO67K-IDZlS5Hx-94">
          <mxGeometry width="370" height="56" as="geometry" />
        </mxCell>
        <mxCell id="Kf_SSCEO67K-IDZlS5Hx-96" value="" style="shape=partialRectangle;html=1;whiteSpace=wrap;connectable=0;strokeColor=inherit;overflow=hidden;fillColor=none;top=0;left=0;bottom=0;right=0;pointerEvents=1;strokeWidth=0;opacity=0;" vertex="1" parent="Kf_SSCEO67K-IDZlS5Hx-95">
          <mxGeometry width="74" height="56" as="geometry">
            <mxRectangle width="74" height="56" as="alternateBounds" />
          </mxGeometry>
        </mxCell>
        <mxCell id="Kf_SSCEO67K-IDZlS5Hx-97" value="" style="shape=partialRectangle;html=1;whiteSpace=wrap;connectable=0;strokeColor=inherit;overflow=hidden;fillColor=none;top=0;left=0;bottom=0;right=0;pointerEvents=1;strokeWidth=0;opacity=0;" vertex="1" parent="Kf_SSCEO67K-IDZlS5Hx-95">
          <mxGeometry x="74" width="74" height="56" as="geometry">
            <mxRectangle width="74" height="56" as="alternateBounds" />
          </mxGeometry>
        </mxCell>
        <mxCell id="Kf_SSCEO67K-IDZlS5Hx-98" value="" style="shape=partialRectangle;html=1;whiteSpace=wrap;connectable=0;strokeColor=inherit;overflow=hidden;fillColor=none;top=0;left=0;bottom=0;right=0;pointerEvents=1;strokeWidth=0;opacity=0;" vertex="1" parent="Kf_SSCEO67K-IDZlS5Hx-95">
          <mxGeometry x="148" width="74" height="56" as="geometry">
            <mxRectangle width="74" height="56" as="alternateBounds" />
          </mxGeometry>
        </mxCell>
        <mxCell id="Kf_SSCEO67K-IDZlS5Hx-99" value="" style="shape=partialRectangle;html=1;whiteSpace=wrap;connectable=0;strokeColor=inherit;overflow=hidden;fillColor=none;top=0;left=0;bottom=0;right=0;pointerEvents=1;strokeWidth=0;opacity=0;" vertex="1" parent="Kf_SSCEO67K-IDZlS5Hx-95">
          <mxGeometry x="222" width="74" height="56" as="geometry">
            <mxRectangle width="74" height="56" as="alternateBounds" />
          </mxGeometry>
        </mxCell>
        <mxCell id="Kf_SSCEO67K-IDZlS5Hx-100" value="" style="shape=partialRectangle;html=1;whiteSpace=wrap;connectable=0;strokeColor=inherit;overflow=hidden;fillColor=none;top=0;left=0;bottom=0;right=0;pointerEvents=1;strokeWidth=0;opacity=0;" vertex="1" parent="Kf_SSCEO67K-IDZlS5Hx-95">
          <mxGeometry x="296" width="74" height="56" as="geometry">
            <mxRectangle width="74" height="56" as="alternateBounds" />
          </mxGeometry>
        </mxCell>
        <mxCell id="Kf_SSCEO67K-IDZlS5Hx-101" value="" style="shape=tableRow;horizontal=0;startSize=0;swimlaneHead=0;swimlaneBody=0;strokeColor=inherit;top=0;left=0;bottom=0;right=0;collapsible=0;dropTarget=0;fillColor=none;points=[[0,0.5],[1,0.5]];portConstraint=eastwest;strokeWidth=0;opacity=0;" vertex="1" parent="Kf_SSCEO67K-IDZlS5Hx-94">
          <mxGeometry y="56" width="370" height="58" as="geometry" />
        </mxCell>
        <mxCell id="Kf_SSCEO67K-IDZlS5Hx-102" value="" style="shape=partialRectangle;html=1;whiteSpace=wrap;connectable=0;strokeColor=inherit;overflow=hidden;fillColor=none;top=0;left=0;bottom=0;right=0;pointerEvents=1;strokeWidth=0;opacity=0;" vertex="1" parent="Kf_SSCEO67K-IDZlS5Hx-101">
          <mxGeometry width="74" height="58" as="geometry">
            <mxRectangle width="74" height="58" as="alternateBounds" />
          </mxGeometry>
        </mxCell>
        <mxCell id="Kf_SSCEO67K-IDZlS5Hx-103" value="" style="shape=partialRectangle;html=1;whiteSpace=wrap;connectable=0;strokeColor=inherit;overflow=hidden;fillColor=none;top=0;left=0;bottom=0;right=0;pointerEvents=1;strokeWidth=0;opacity=0;" vertex="1" parent="Kf_SSCEO67K-IDZlS5Hx-101">
          <mxGeometry x="74" width="74" height="58" as="geometry">
            <mxRectangle width="74" height="58" as="alternateBounds" />
          </mxGeometry>
        </mxCell>
        <mxCell id="Kf_SSCEO67K-IDZlS5Hx-104" value="" style="shape=partialRectangle;html=1;whiteSpace=wrap;connectable=0;strokeColor=inherit;overflow=hidden;fillColor=none;top=0;left=0;bottom=0;right=0;pointerEvents=1;strokeWidth=0;opacity=0;" vertex="1" parent="Kf_SSCEO67K-IDZlS5Hx-101">
          <mxGeometry x="148" width="74" height="58" as="geometry">
            <mxRectangle width="74" height="58" as="alternateBounds" />
          </mxGeometry>
        </mxCell>
        <mxCell id="Kf_SSCEO67K-IDZlS5Hx-105" value="" style="shape=partialRectangle;html=1;whiteSpace=wrap;connectable=0;strokeColor=inherit;overflow=hidden;fillColor=none;top=0;left=0;bottom=0;right=0;pointerEvents=1;strokeWidth=0;opacity=0;" vertex="1" parent="Kf_SSCEO67K-IDZlS5Hx-101">
          <mxGeometry x="222" width="74" height="58" as="geometry">
            <mxRectangle width="74" height="58" as="alternateBounds" />
          </mxGeometry>
        </mxCell>
        <mxCell id="Kf_SSCEO67K-IDZlS5Hx-106" value="" style="shape=partialRectangle;html=1;whiteSpace=wrap;connectable=0;strokeColor=inherit;overflow=hidden;fillColor=none;top=0;left=0;bottom=0;right=0;pointerEvents=1;strokeWidth=0;opacity=0;" vertex="1" parent="Kf_SSCEO67K-IDZlS5Hx-101">
          <mxGeometry x="296" width="74" height="58" as="geometry">
            <mxRectangle width="74" height="58" as="alternateBounds" />
          </mxGeometry>
        </mxCell>
        <mxCell id="Kf_SSCEO67K-IDZlS5Hx-107" value="" style="shape=tableRow;horizontal=0;startSize=0;swimlaneHead=0;swimlaneBody=0;strokeColor=inherit;top=0;left=0;bottom=0;right=0;collapsible=0;dropTarget=0;fillColor=none;points=[[0,0.5],[1,0.5]];portConstraint=eastwest;strokeWidth=0;opacity=0;" vertex="1" parent="Kf_SSCEO67K-IDZlS5Hx-94">
          <mxGeometry y="114" width="370" height="56" as="geometry" />
        </mxCell>
        <mxCell id="Kf_SSCEO67K-IDZlS5Hx-108" value="" style="shape=partialRectangle;html=1;whiteSpace=wrap;connectable=0;strokeColor=inherit;overflow=hidden;fillColor=none;top=0;left=0;bottom=0;right=0;pointerEvents=1;strokeWidth=0;opacity=0;" vertex="1" parent="Kf_SSCEO67K-IDZlS5Hx-107">
          <mxGeometry width="74" height="56" as="geometry">
            <mxRectangle width="74" height="56" as="alternateBounds" />
          </mxGeometry>
        </mxCell>
        <mxCell id="Kf_SSCEO67K-IDZlS5Hx-109" value="" style="shape=partialRectangle;html=1;whiteSpace=wrap;connectable=0;strokeColor=inherit;overflow=hidden;fillColor=none;top=0;left=0;bottom=0;right=0;pointerEvents=1;strokeWidth=0;opacity=0;" vertex="1" parent="Kf_SSCEO67K-IDZlS5Hx-107">
          <mxGeometry x="74" width="74" height="56" as="geometry">
            <mxRectangle width="74" height="56" as="alternateBounds" />
          </mxGeometry>
        </mxCell>
        <mxCell id="Kf_SSCEO67K-IDZlS5Hx-110" value="" style="shape=partialRectangle;html=1;whiteSpace=wrap;connectable=0;strokeColor=inherit;overflow=hidden;fillColor=none;top=0;left=0;bottom=0;right=0;pointerEvents=1;strokeWidth=0;opacity=0;" vertex="1" parent="Kf_SSCEO67K-IDZlS5Hx-107">
          <mxGeometry x="148" width="74" height="56" as="geometry">
            <mxRectangle width="74" height="56" as="alternateBounds" />
          </mxGeometry>
        </mxCell>
        <mxCell id="Kf_SSCEO67K-IDZlS5Hx-111" value="" style="shape=partialRectangle;html=1;whiteSpace=wrap;connectable=0;strokeColor=inherit;overflow=hidden;fillColor=none;top=0;left=0;bottom=0;right=0;pointerEvents=1;strokeWidth=0;opacity=0;" vertex="1" parent="Kf_SSCEO67K-IDZlS5Hx-107">
          <mxGeometry x="222" width="74" height="56" as="geometry">
            <mxRectangle width="74" height="56" as="alternateBounds" />
          </mxGeometry>
        </mxCell>
        <mxCell id="Kf_SSCEO67K-IDZlS5Hx-112" value="" style="shape=partialRectangle;html=1;whiteSpace=wrap;connectable=0;strokeColor=inherit;overflow=hidden;fillColor=none;top=0;left=0;bottom=0;right=0;pointerEvents=1;strokeWidth=0;opacity=0;" vertex="1" parent="Kf_SSCEO67K-IDZlS5Hx-107">
          <mxGeometry x="296" width="74" height="56" as="geometry">
            <mxRectangle width="74" height="56" as="alternateBounds" />
          </mxGeometry>
        </mxCell>
        <mxCell id="Kf_SSCEO67K-IDZlS5Hx-113" value="" style="shape=tableRow;horizontal=0;startSize=0;swimlaneHead=0;swimlaneBody=0;strokeColor=inherit;top=0;left=0;bottom=0;right=0;collapsible=0;dropTarget=0;fillColor=none;points=[[0,0.5],[1,0.5]];portConstraint=eastwest;strokeWidth=0;opacity=0;" vertex="1" parent="Kf_SSCEO67K-IDZlS5Hx-94">
          <mxGeometry y="170" width="370" height="56" as="geometry" />
        </mxCell>
        <mxCell id="Kf_SSCEO67K-IDZlS5Hx-114" value="" style="shape=partialRectangle;html=1;whiteSpace=wrap;connectable=0;strokeColor=inherit;overflow=hidden;fillColor=none;top=0;left=0;bottom=0;right=0;pointerEvents=1;strokeWidth=0;opacity=0;" vertex="1" parent="Kf_SSCEO67K-IDZlS5Hx-113">
          <mxGeometry width="74" height="56" as="geometry">
            <mxRectangle width="74" height="56" as="alternateBounds" />
          </mxGeometry>
        </mxCell>
        <mxCell id="Kf_SSCEO67K-IDZlS5Hx-115" value="" style="shape=partialRectangle;html=1;whiteSpace=wrap;connectable=0;strokeColor=inherit;overflow=hidden;fillColor=none;top=0;left=0;bottom=0;right=0;pointerEvents=1;strokeWidth=0;opacity=0;" vertex="1" parent="Kf_SSCEO67K-IDZlS5Hx-113">
          <mxGeometry x="74" width="74" height="56" as="geometry">
            <mxRectangle width="74" height="56" as="alternateBounds" />
          </mxGeometry>
        </mxCell>
        <mxCell id="Kf_SSCEO67K-IDZlS5Hx-116" value="" style="shape=partialRectangle;html=1;whiteSpace=wrap;connectable=0;strokeColor=inherit;overflow=hidden;fillColor=none;top=0;left=0;bottom=0;right=0;pointerEvents=1;strokeWidth=0;opacity=0;" vertex="1" parent="Kf_SSCEO67K-IDZlS5Hx-113">
          <mxGeometry x="148" width="74" height="56" as="geometry">
            <mxRectangle width="74" height="56" as="alternateBounds" />
          </mxGeometry>
        </mxCell>
        <mxCell id="Kf_SSCEO67K-IDZlS5Hx-117" value="" style="shape=partialRectangle;html=1;whiteSpace=wrap;connectable=0;strokeColor=inherit;overflow=hidden;fillColor=none;top=0;left=0;bottom=0;right=0;pointerEvents=1;strokeWidth=0;opacity=0;" vertex="1" parent="Kf_SSCEO67K-IDZlS5Hx-113">
          <mxGeometry x="222" width="74" height="56" as="geometry">
            <mxRectangle width="74" height="56" as="alternateBounds" />
          </mxGeometry>
        </mxCell>
        <mxCell id="Kf_SSCEO67K-IDZlS5Hx-118" value="" style="shape=partialRectangle;html=1;whiteSpace=wrap;connectable=0;strokeColor=inherit;overflow=hidden;fillColor=none;top=0;left=0;bottom=0;right=0;pointerEvents=1;strokeWidth=0;opacity=0;" vertex="1" parent="Kf_SSCEO67K-IDZlS5Hx-113">
          <mxGeometry x="296" width="74" height="56" as="geometry">
            <mxRectangle width="74" height="56" as="alternateBounds" />
          </mxGeometry>
        </mxCell>
        <mxCell id="Kf_SSCEO67K-IDZlS5Hx-119" value="" style="shape=tableRow;horizontal=0;startSize=0;swimlaneHead=0;swimlaneBody=0;strokeColor=inherit;top=0;left=0;bottom=0;right=0;collapsible=0;dropTarget=0;fillColor=none;points=[[0,0.5],[1,0.5]];portConstraint=eastwest;strokeWidth=0;opacity=0;" vertex="1" parent="Kf_SSCEO67K-IDZlS5Hx-94">
          <mxGeometry y="226" width="370" height="58" as="geometry" />
        </mxCell>
        <mxCell id="Kf_SSCEO67K-IDZlS5Hx-120" value="" style="shape=partialRectangle;html=1;whiteSpace=wrap;connectable=0;strokeColor=inherit;overflow=hidden;fillColor=none;top=0;left=0;bottom=0;right=0;pointerEvents=1;strokeWidth=0;opacity=0;" vertex="1" parent="Kf_SSCEO67K-IDZlS5Hx-119">
          <mxGeometry width="74" height="58" as="geometry">
            <mxRectangle width="74" height="58" as="alternateBounds" />
          </mxGeometry>
        </mxCell>
        <mxCell id="Kf_SSCEO67K-IDZlS5Hx-121" value="" style="shape=partialRectangle;html=1;whiteSpace=wrap;connectable=0;strokeColor=inherit;overflow=hidden;fillColor=none;top=0;left=0;bottom=0;right=0;pointerEvents=1;strokeWidth=0;opacity=0;" vertex="1" parent="Kf_SSCEO67K-IDZlS5Hx-119">
          <mxGeometry x="74" width="74" height="58" as="geometry">
            <mxRectangle width="74" height="58" as="alternateBounds" />
          </mxGeometry>
        </mxCell>
        <mxCell id="Kf_SSCEO67K-IDZlS5Hx-122" value="" style="shape=partialRectangle;html=1;whiteSpace=wrap;connectable=0;strokeColor=inherit;overflow=hidden;fillColor=none;top=0;left=0;bottom=0;right=0;pointerEvents=1;strokeWidth=0;opacity=0;" vertex="1" parent="Kf_SSCEO67K-IDZlS5Hx-119">
          <mxGeometry x="148" width="74" height="58" as="geometry">
            <mxRectangle width="74" height="58" as="alternateBounds" />
          </mxGeometry>
        </mxCell>
        <mxCell id="Kf_SSCEO67K-IDZlS5Hx-123" value="" style="shape=partialRectangle;html=1;whiteSpace=wrap;connectable=0;strokeColor=inherit;overflow=hidden;fillColor=none;top=0;left=0;bottom=0;right=0;pointerEvents=1;strokeWidth=0;opacity=0;" vertex="1" parent="Kf_SSCEO67K-IDZlS5Hx-119">
          <mxGeometry x="222" width="74" height="58" as="geometry">
            <mxRectangle width="74" height="58" as="alternateBounds" />
          </mxGeometry>
        </mxCell>
        <mxCell id="Kf_SSCEO67K-IDZlS5Hx-124" value="" style="shape=partialRectangle;html=1;whiteSpace=wrap;connectable=0;strokeColor=inherit;overflow=hidden;fillColor=none;top=0;left=0;bottom=0;right=0;pointerEvents=1;strokeWidth=0;opacity=0;" vertex="1" parent="Kf_SSCEO67K-IDZlS5Hx-119">
          <mxGeometry x="296" width="74" height="58" as="geometry">
            <mxRectangle width="74" height="58" as="alternateBounds" />
          </mxGeometry>
        </mxCell>
        <mxCell id="Kf_SSCEO67K-IDZlS5Hx-125" value="" style="shape=tableRow;horizontal=0;startSize=0;swimlaneHead=0;swimlaneBody=0;strokeColor=inherit;top=0;left=0;bottom=0;right=0;collapsible=0;dropTarget=0;fillColor=none;points=[[0,0.5],[1,0.5]];portConstraint=eastwest;strokeWidth=0;opacity=0;" vertex="1" parent="Kf_SSCEO67K-IDZlS5Hx-94">
          <mxGeometry y="284" width="370" height="56" as="geometry" />
        </mxCell>
        <mxCell id="Kf_SSCEO67K-IDZlS5Hx-126" value="" style="shape=partialRectangle;html=1;whiteSpace=wrap;connectable=0;strokeColor=inherit;overflow=hidden;fillColor=none;top=0;left=0;bottom=0;right=0;pointerEvents=1;strokeWidth=0;opacity=0;" vertex="1" parent="Kf_SSCEO67K-IDZlS5Hx-125">
          <mxGeometry width="74" height="56" as="geometry">
            <mxRectangle width="74" height="56" as="alternateBounds" />
          </mxGeometry>
        </mxCell>
        <mxCell id="Kf_SSCEO67K-IDZlS5Hx-127" value="" style="shape=partialRectangle;html=1;whiteSpace=wrap;connectable=0;strokeColor=inherit;overflow=hidden;fillColor=none;top=0;left=0;bottom=0;right=0;pointerEvents=1;strokeWidth=0;opacity=0;" vertex="1" parent="Kf_SSCEO67K-IDZlS5Hx-125">
          <mxGeometry x="74" width="74" height="56" as="geometry">
            <mxRectangle width="74" height="56" as="alternateBounds" />
          </mxGeometry>
        </mxCell>
        <mxCell id="Kf_SSCEO67K-IDZlS5Hx-128" value="" style="shape=partialRectangle;html=1;whiteSpace=wrap;connectable=0;strokeColor=inherit;overflow=hidden;fillColor=none;top=0;left=0;bottom=0;right=0;pointerEvents=1;strokeWidth=0;opacity=0;" vertex="1" parent="Kf_SSCEO67K-IDZlS5Hx-125">
          <mxGeometry x="148" width="74" height="56" as="geometry">
            <mxRectangle width="74" height="56" as="alternateBounds" />
          </mxGeometry>
        </mxCell>
        <mxCell id="Kf_SSCEO67K-IDZlS5Hx-129" value="" style="shape=partialRectangle;html=1;whiteSpace=wrap;connectable=0;strokeColor=inherit;overflow=hidden;fillColor=none;top=0;left=0;bottom=0;right=0;pointerEvents=1;strokeWidth=0;opacity=0;" vertex="1" parent="Kf_SSCEO67K-IDZlS5Hx-125">
          <mxGeometry x="222" width="74" height="56" as="geometry">
            <mxRectangle width="74" height="56" as="alternateBounds" />
          </mxGeometry>
        </mxCell>
        <mxCell id="Kf_SSCEO67K-IDZlS5Hx-130" value="" style="shape=partialRectangle;html=1;whiteSpace=wrap;connectable=0;strokeColor=inherit;overflow=hidden;fillColor=none;top=0;left=0;bottom=0;right=0;pointerEvents=1;strokeWidth=0;opacity=0;" vertex="1" parent="Kf_SSCEO67K-IDZlS5Hx-125">
          <mxGeometry x="296" width="74" height="56" as="geometry">
            <mxRectangle width="74" height="56" as="alternateBounds" />
          </mxGeometry>
        </mxCell>
        <mxCell id="Kf_SSCEO67K-IDZlS5Hx-131" value="" style="shape=table;startSize=0;container=1;collapsible=0;childLayout=tableLayout;strokeColor=default;strokeWidth=1;fillColor=none;opacity=50;" vertex="1" parent="1">
          <mxGeometry x="444" y="169" width="370" height="340" as="geometry" />
        </mxCell>
        <mxCell id="Kf_SSCEO67K-IDZlS5Hx-132" value="" style="shape=tableRow;horizontal=0;startSize=0;swimlaneHead=0;swimlaneBody=0;strokeColor=inherit;top=0;left=0;bottom=0;right=0;collapsible=0;dropTarget=0;fillColor=none;points=[[0,0.5],[1,0.5]];portConstraint=eastwest;strokeWidth=0;opacity=0;" vertex="1" parent="Kf_SSCEO67K-IDZlS5Hx-131">
          <mxGeometry width="370" height="56" as="geometry" />
        </mxCell>
        <mxCell id="Kf_SSCEO67K-IDZlS5Hx-133" value="" style="shape=partialRectangle;html=1;whiteSpace=wrap;connectable=0;strokeColor=inherit;overflow=hidden;fillColor=none;top=0;left=0;bottom=0;right=0;pointerEvents=1;strokeWidth=0;opacity=0;" vertex="1" parent="Kf_SSCEO67K-IDZlS5Hx-132">
          <mxGeometry width="74" height="56" as="geometry">
            <mxRectangle width="74" height="56" as="alternateBounds" />
          </mxGeometry>
        </mxCell>
        <mxCell id="Kf_SSCEO67K-IDZlS5Hx-134" value="" style="shape=partialRectangle;html=1;whiteSpace=wrap;connectable=0;strokeColor=inherit;overflow=hidden;fillColor=none;top=0;left=0;bottom=0;right=0;pointerEvents=1;strokeWidth=0;opacity=0;" vertex="1" parent="Kf_SSCEO67K-IDZlS5Hx-132">
          <mxGeometry x="74" width="74" height="56" as="geometry">
            <mxRectangle width="74" height="56" as="alternateBounds" />
          </mxGeometry>
        </mxCell>
        <mxCell id="Kf_SSCEO67K-IDZlS5Hx-135" value="" style="shape=partialRectangle;html=1;whiteSpace=wrap;connectable=0;strokeColor=inherit;overflow=hidden;fillColor=none;top=0;left=0;bottom=0;right=0;pointerEvents=1;strokeWidth=0;opacity=0;" vertex="1" parent="Kf_SSCEO67K-IDZlS5Hx-132">
          <mxGeometry x="148" width="74" height="56" as="geometry">
            <mxRectangle width="74" height="56" as="alternateBounds" />
          </mxGeometry>
        </mxCell>
        <mxCell id="Kf_SSCEO67K-IDZlS5Hx-136" value="" style="shape=partialRectangle;html=1;whiteSpace=wrap;connectable=0;strokeColor=inherit;overflow=hidden;fillColor=none;top=0;left=0;bottom=0;right=0;pointerEvents=1;strokeWidth=0;opacity=0;" vertex="1" parent="Kf_SSCEO67K-IDZlS5Hx-132">
          <mxGeometry x="222" width="74" height="56" as="geometry">
            <mxRectangle width="74" height="56" as="alternateBounds" />
          </mxGeometry>
        </mxCell>
        <mxCell id="Kf_SSCEO67K-IDZlS5Hx-137" value="" style="shape=partialRectangle;html=1;whiteSpace=wrap;connectable=0;strokeColor=inherit;overflow=hidden;fillColor=none;top=0;left=0;bottom=0;right=0;pointerEvents=1;strokeWidth=0;opacity=0;" vertex="1" parent="Kf_SSCEO67K-IDZlS5Hx-132">
          <mxGeometry x="296" width="74" height="56" as="geometry">
            <mxRectangle width="74" height="56" as="alternateBounds" />
          </mxGeometry>
        </mxCell>
        <mxCell id="Kf_SSCEO67K-IDZlS5Hx-138" value="" style="shape=tableRow;horizontal=0;startSize=0;swimlaneHead=0;swimlaneBody=0;strokeColor=inherit;top=0;left=0;bottom=0;right=0;collapsible=0;dropTarget=0;fillColor=none;points=[[0,0.5],[1,0.5]];portConstraint=eastwest;strokeWidth=0;opacity=0;" vertex="1" parent="Kf_SSCEO67K-IDZlS5Hx-131">
          <mxGeometry y="56" width="370" height="58" as="geometry" />
        </mxCell>
        <mxCell id="Kf_SSCEO67K-IDZlS5Hx-139" value="" style="shape=partialRectangle;html=1;whiteSpace=wrap;connectable=0;strokeColor=inherit;overflow=hidden;fillColor=none;top=0;left=0;bottom=0;right=0;pointerEvents=1;strokeWidth=0;opacity=0;" vertex="1" parent="Kf_SSCEO67K-IDZlS5Hx-138">
          <mxGeometry width="74" height="58" as="geometry">
            <mxRectangle width="74" height="58" as="alternateBounds" />
          </mxGeometry>
        </mxCell>
        <mxCell id="Kf_SSCEO67K-IDZlS5Hx-140" value="" style="shape=partialRectangle;html=1;whiteSpace=wrap;connectable=0;strokeColor=inherit;overflow=hidden;fillColor=none;top=0;left=0;bottom=0;right=0;pointerEvents=1;strokeWidth=0;opacity=0;" vertex="1" parent="Kf_SSCEO67K-IDZlS5Hx-138">
          <mxGeometry x="74" width="74" height="58" as="geometry">
            <mxRectangle width="74" height="58" as="alternateBounds" />
          </mxGeometry>
        </mxCell>
        <mxCell id="Kf_SSCEO67K-IDZlS5Hx-141" value="" style="shape=partialRectangle;html=1;whiteSpace=wrap;connectable=0;strokeColor=inherit;overflow=hidden;fillColor=none;top=0;left=0;bottom=0;right=0;pointerEvents=1;strokeWidth=0;opacity=0;" vertex="1" parent="Kf_SSCEO67K-IDZlS5Hx-138">
          <mxGeometry x="148" width="74" height="58" as="geometry">
            <mxRectangle width="74" height="58" as="alternateBounds" />
          </mxGeometry>
        </mxCell>
        <mxCell id="Kf_SSCEO67K-IDZlS5Hx-142" value="" style="shape=partialRectangle;html=1;whiteSpace=wrap;connectable=0;strokeColor=inherit;overflow=hidden;fillColor=none;top=0;left=0;bottom=0;right=0;pointerEvents=1;strokeWidth=0;opacity=0;" vertex="1" parent="Kf_SSCEO67K-IDZlS5Hx-138">
          <mxGeometry x="222" width="74" height="58" as="geometry">
            <mxRectangle width="74" height="58" as="alternateBounds" />
          </mxGeometry>
        </mxCell>
        <mxCell id="Kf_SSCEO67K-IDZlS5Hx-143" value="" style="shape=partialRectangle;html=1;whiteSpace=wrap;connectable=0;strokeColor=inherit;overflow=hidden;fillColor=none;top=0;left=0;bottom=0;right=0;pointerEvents=1;strokeWidth=0;opacity=0;" vertex="1" parent="Kf_SSCEO67K-IDZlS5Hx-138">
          <mxGeometry x="296" width="74" height="58" as="geometry">
            <mxRectangle width="74" height="58" as="alternateBounds" />
          </mxGeometry>
        </mxCell>
        <mxCell id="Kf_SSCEO67K-IDZlS5Hx-144" value="" style="shape=tableRow;horizontal=0;startSize=0;swimlaneHead=0;swimlaneBody=0;strokeColor=inherit;top=0;left=0;bottom=0;right=0;collapsible=0;dropTarget=0;fillColor=none;points=[[0,0.5],[1,0.5]];portConstraint=eastwest;strokeWidth=0;opacity=0;" vertex="1" parent="Kf_SSCEO67K-IDZlS5Hx-131">
          <mxGeometry y="114" width="370" height="56" as="geometry" />
        </mxCell>
        <mxCell id="Kf_SSCEO67K-IDZlS5Hx-145" value="" style="shape=partialRectangle;html=1;whiteSpace=wrap;connectable=0;strokeColor=inherit;overflow=hidden;fillColor=none;top=0;left=0;bottom=0;right=0;pointerEvents=1;strokeWidth=0;opacity=0;" vertex="1" parent="Kf_SSCEO67K-IDZlS5Hx-144">
          <mxGeometry width="74" height="56" as="geometry">
            <mxRectangle width="74" height="56" as="alternateBounds" />
          </mxGeometry>
        </mxCell>
        <mxCell id="Kf_SSCEO67K-IDZlS5Hx-146" value="" style="shape=partialRectangle;html=1;whiteSpace=wrap;connectable=0;strokeColor=inherit;overflow=hidden;fillColor=none;top=0;left=0;bottom=0;right=0;pointerEvents=1;strokeWidth=0;opacity=0;" vertex="1" parent="Kf_SSCEO67K-IDZlS5Hx-144">
          <mxGeometry x="74" width="74" height="56" as="geometry">
            <mxRectangle width="74" height="56" as="alternateBounds" />
          </mxGeometry>
        </mxCell>
        <mxCell id="Kf_SSCEO67K-IDZlS5Hx-147" value="" style="shape=partialRectangle;html=1;whiteSpace=wrap;connectable=0;strokeColor=inherit;overflow=hidden;fillColor=none;top=0;left=0;bottom=0;right=0;pointerEvents=1;strokeWidth=0;opacity=0;" vertex="1" parent="Kf_SSCEO67K-IDZlS5Hx-144">
          <mxGeometry x="148" width="74" height="56" as="geometry">
            <mxRectangle width="74" height="56" as="alternateBounds" />
          </mxGeometry>
        </mxCell>
        <mxCell id="Kf_SSCEO67K-IDZlS5Hx-148" value="" style="shape=partialRectangle;html=1;whiteSpace=wrap;connectable=0;strokeColor=inherit;overflow=hidden;fillColor=none;top=0;left=0;bottom=0;right=0;pointerEvents=1;strokeWidth=0;opacity=0;" vertex="1" parent="Kf_SSCEO67K-IDZlS5Hx-144">
          <mxGeometry x="222" width="74" height="56" as="geometry">
            <mxRectangle width="74" height="56" as="alternateBounds" />
          </mxGeometry>
        </mxCell>
        <mxCell id="Kf_SSCEO67K-IDZlS5Hx-149" value="" style="shape=partialRectangle;html=1;whiteSpace=wrap;connectable=0;strokeColor=inherit;overflow=hidden;fillColor=none;top=0;left=0;bottom=0;right=0;pointerEvents=1;strokeWidth=0;opacity=0;" vertex="1" parent="Kf_SSCEO67K-IDZlS5Hx-144">
          <mxGeometry x="296" width="74" height="56" as="geometry">
            <mxRectangle width="74" height="56" as="alternateBounds" />
          </mxGeometry>
        </mxCell>
        <mxCell id="Kf_SSCEO67K-IDZlS5Hx-150" value="" style="shape=tableRow;horizontal=0;startSize=0;swimlaneHead=0;swimlaneBody=0;strokeColor=inherit;top=0;left=0;bottom=0;right=0;collapsible=0;dropTarget=0;fillColor=none;points=[[0,0.5],[1,0.5]];portConstraint=eastwest;strokeWidth=0;opacity=0;" vertex="1" parent="Kf_SSCEO67K-IDZlS5Hx-131">
          <mxGeometry y="170" width="370" height="56" as="geometry" />
        </mxCell>
        <mxCell id="Kf_SSCEO67K-IDZlS5Hx-151" value="" style="shape=partialRectangle;html=1;whiteSpace=wrap;connectable=0;strokeColor=inherit;overflow=hidden;fillColor=none;top=0;left=0;bottom=0;right=0;pointerEvents=1;strokeWidth=0;opacity=0;" vertex="1" parent="Kf_SSCEO67K-IDZlS5Hx-150">
          <mxGeometry width="74" height="56" as="geometry">
            <mxRectangle width="74" height="56" as="alternateBounds" />
          </mxGeometry>
        </mxCell>
        <mxCell id="Kf_SSCEO67K-IDZlS5Hx-152" value="" style="shape=partialRectangle;html=1;whiteSpace=wrap;connectable=0;strokeColor=inherit;overflow=hidden;fillColor=none;top=0;left=0;bottom=0;right=0;pointerEvents=1;strokeWidth=0;opacity=0;" vertex="1" parent="Kf_SSCEO67K-IDZlS5Hx-150">
          <mxGeometry x="74" width="74" height="56" as="geometry">
            <mxRectangle width="74" height="56" as="alternateBounds" />
          </mxGeometry>
        </mxCell>
        <mxCell id="Kf_SSCEO67K-IDZlS5Hx-153" value="" style="shape=partialRectangle;html=1;whiteSpace=wrap;connectable=0;strokeColor=inherit;overflow=hidden;fillColor=none;top=0;left=0;bottom=0;right=0;pointerEvents=1;strokeWidth=0;opacity=0;" vertex="1" parent="Kf_SSCEO67K-IDZlS5Hx-150">
          <mxGeometry x="148" width="74" height="56" as="geometry">
            <mxRectangle width="74" height="56" as="alternateBounds" />
          </mxGeometry>
        </mxCell>
        <mxCell id="Kf_SSCEO67K-IDZlS5Hx-154" value="" style="shape=partialRectangle;html=1;whiteSpace=wrap;connectable=0;strokeColor=inherit;overflow=hidden;fillColor=none;top=0;left=0;bottom=0;right=0;pointerEvents=1;strokeWidth=0;opacity=0;" vertex="1" parent="Kf_SSCEO67K-IDZlS5Hx-150">
          <mxGeometry x="222" width="74" height="56" as="geometry">
            <mxRectangle width="74" height="56" as="alternateBounds" />
          </mxGeometry>
        </mxCell>
        <mxCell id="Kf_SSCEO67K-IDZlS5Hx-155" value="" style="shape=partialRectangle;html=1;whiteSpace=wrap;connectable=0;strokeColor=inherit;overflow=hidden;fillColor=none;top=0;left=0;bottom=0;right=0;pointerEvents=1;strokeWidth=0;opacity=0;" vertex="1" parent="Kf_SSCEO67K-IDZlS5Hx-150">
          <mxGeometry x="296" width="74" height="56" as="geometry">
            <mxRectangle width="74" height="56" as="alternateBounds" />
          </mxGeometry>
        </mxCell>
        <mxCell id="Kf_SSCEO67K-IDZlS5Hx-156" value="" style="shape=tableRow;horizontal=0;startSize=0;swimlaneHead=0;swimlaneBody=0;strokeColor=inherit;top=0;left=0;bottom=0;right=0;collapsible=0;dropTarget=0;fillColor=none;points=[[0,0.5],[1,0.5]];portConstraint=eastwest;strokeWidth=0;opacity=0;" vertex="1" parent="Kf_SSCEO67K-IDZlS5Hx-131">
          <mxGeometry y="226" width="370" height="58" as="geometry" />
        </mxCell>
        <mxCell id="Kf_SSCEO67K-IDZlS5Hx-157" value="" style="shape=partialRectangle;html=1;whiteSpace=wrap;connectable=0;strokeColor=inherit;overflow=hidden;fillColor=none;top=0;left=0;bottom=0;right=0;pointerEvents=1;strokeWidth=0;opacity=0;" vertex="1" parent="Kf_SSCEO67K-IDZlS5Hx-156">
          <mxGeometry width="74" height="58" as="geometry">
            <mxRectangle width="74" height="58" as="alternateBounds" />
          </mxGeometry>
        </mxCell>
        <mxCell id="Kf_SSCEO67K-IDZlS5Hx-158" value="" style="shape=partialRectangle;html=1;whiteSpace=wrap;connectable=0;strokeColor=inherit;overflow=hidden;fillColor=none;top=0;left=0;bottom=0;right=0;pointerEvents=1;strokeWidth=0;opacity=0;" vertex="1" parent="Kf_SSCEO67K-IDZlS5Hx-156">
          <mxGeometry x="74" width="74" height="58" as="geometry">
            <mxRectangle width="74" height="58" as="alternateBounds" />
          </mxGeometry>
        </mxCell>
        <mxCell id="Kf_SSCEO67K-IDZlS5Hx-159" value="" style="shape=partialRectangle;html=1;whiteSpace=wrap;connectable=0;strokeColor=inherit;overflow=hidden;fillColor=none;top=0;left=0;bottom=0;right=0;pointerEvents=1;strokeWidth=0;opacity=0;" vertex="1" parent="Kf_SSCEO67K-IDZlS5Hx-156">
          <mxGeometry x="148" width="74" height="58" as="geometry">
            <mxRectangle width="74" height="58" as="alternateBounds" />
          </mxGeometry>
        </mxCell>
        <mxCell id="Kf_SSCEO67K-IDZlS5Hx-160" value="" style="shape=partialRectangle;html=1;whiteSpace=wrap;connectable=0;strokeColor=inherit;overflow=hidden;fillColor=none;top=0;left=0;bottom=0;right=0;pointerEvents=1;strokeWidth=0;opacity=0;" vertex="1" parent="Kf_SSCEO67K-IDZlS5Hx-156">
          <mxGeometry x="222" width="74" height="58" as="geometry">
            <mxRectangle width="74" height="58" as="alternateBounds" />
          </mxGeometry>
        </mxCell>
        <mxCell id="Kf_SSCEO67K-IDZlS5Hx-161" value="" style="shape=partialRectangle;html=1;whiteSpace=wrap;connectable=0;strokeColor=inherit;overflow=hidden;fillColor=none;top=0;left=0;bottom=0;right=0;pointerEvents=1;strokeWidth=0;opacity=0;" vertex="1" parent="Kf_SSCEO67K-IDZlS5Hx-156">
          <mxGeometry x="296" width="74" height="58" as="geometry">
            <mxRectangle width="74" height="58" as="alternateBounds" />
          </mxGeometry>
        </mxCell>
        <mxCell id="Kf_SSCEO67K-IDZlS5Hx-162" value="" style="shape=tableRow;horizontal=0;startSize=0;swimlaneHead=0;swimlaneBody=0;strokeColor=inherit;top=0;left=0;bottom=0;right=0;collapsible=0;dropTarget=0;fillColor=none;points=[[0,0.5],[1,0.5]];portConstraint=eastwest;strokeWidth=0;opacity=0;" vertex="1" parent="Kf_SSCEO67K-IDZlS5Hx-131">
          <mxGeometry y="284" width="370" height="56" as="geometry" />
        </mxCell>
        <mxCell id="Kf_SSCEO67K-IDZlS5Hx-163" value="" style="shape=partialRectangle;html=1;whiteSpace=wrap;connectable=0;strokeColor=inherit;overflow=hidden;fillColor=none;top=0;left=0;bottom=0;right=0;pointerEvents=1;strokeWidth=0;opacity=0;" vertex="1" parent="Kf_SSCEO67K-IDZlS5Hx-162">
          <mxGeometry width="74" height="56" as="geometry">
            <mxRectangle width="74" height="56" as="alternateBounds" />
          </mxGeometry>
        </mxCell>
        <mxCell id="Kf_SSCEO67K-IDZlS5Hx-164" value="" style="shape=partialRectangle;html=1;whiteSpace=wrap;connectable=0;strokeColor=inherit;overflow=hidden;fillColor=none;top=0;left=0;bottom=0;right=0;pointerEvents=1;strokeWidth=0;opacity=0;" vertex="1" parent="Kf_SSCEO67K-IDZlS5Hx-162">
          <mxGeometry x="74" width="74" height="56" as="geometry">
            <mxRectangle width="74" height="56" as="alternateBounds" />
          </mxGeometry>
        </mxCell>
        <mxCell id="Kf_SSCEO67K-IDZlS5Hx-165" value="" style="shape=partialRectangle;html=1;whiteSpace=wrap;connectable=0;strokeColor=inherit;overflow=hidden;fillColor=none;top=0;left=0;bottom=0;right=0;pointerEvents=1;strokeWidth=0;opacity=0;" vertex="1" parent="Kf_SSCEO67K-IDZlS5Hx-162">
          <mxGeometry x="148" width="74" height="56" as="geometry">
            <mxRectangle width="74" height="56" as="alternateBounds" />
          </mxGeometry>
        </mxCell>
        <mxCell id="Kf_SSCEO67K-IDZlS5Hx-166" value="" style="shape=partialRectangle;html=1;whiteSpace=wrap;connectable=0;strokeColor=inherit;overflow=hidden;fillColor=none;top=0;left=0;bottom=0;right=0;pointerEvents=1;strokeWidth=0;opacity=0;" vertex="1" parent="Kf_SSCEO67K-IDZlS5Hx-162">
          <mxGeometry x="222" width="74" height="56" as="geometry">
            <mxRectangle width="74" height="56" as="alternateBounds" />
          </mxGeometry>
        </mxCell>
        <mxCell id="Kf_SSCEO67K-IDZlS5Hx-167" value="" style="shape=partialRectangle;html=1;whiteSpace=wrap;connectable=0;strokeColor=inherit;overflow=hidden;fillColor=none;top=0;left=0;bottom=0;right=0;pointerEvents=1;strokeWidth=0;opacity=0;" vertex="1" parent="Kf_SSCEO67K-IDZlS5Hx-162">
          <mxGeometry x="296" width="74" height="56" as="geometry">
            <mxRectangle width="74" height="56" as="alternateBounds" />
          </mxGeometry>
        </mxCell>
        <mxCell id="Kf_SSCEO67K-IDZlS5Hx-3" value="Without BEAT" style="text;html=1;strokeColor=none;fillColor=none;align=center;verticalAlign=middle;whiteSpace=wrap;rounded=0;" vertex="1" parent="1">
          <mxGeometry x="57" y="130" width="80" height="30" as="geometry" />
        </mxCell>
        <mxCell id="Kf_SSCEO67K-IDZlS5Hx-4" value="With BEAT" style="text;html=1;strokeColor=none;fillColor=none;align=center;verticalAlign=middle;whiteSpace=wrap;rounded=0;" vertex="1" parent="1">
          <mxGeometry x="595" y="130" width="60" height="30" as="geometry" />
        </mxCell>
        <mxCell id="Kf_SSCEO67K-IDZlS5Hx-6" value="" style="endArrow=none;html=1;rounded=0;exitX=0.048;exitY=1.001;exitDx=0;exitDy=0;exitPerimeter=0;fillColor=#f8cecc;strokeColor=#bb00bb;" edge="1" parent="1">
          <mxGeometry width="50" height="50" relative="1" as="geometry">
            <mxPoint x="-70.75999999999999" y="510.3399999999999" as="sourcePoint" />
            <mxPoint x="290" y="270" as="targetPoint" />
            <Array as="points">
              <mxPoint x="-29" y="370" />
              <mxPoint x="81" y="260" />
              <mxPoint x="280" y="270" />
            </Array>
          </mxGeometry>
        </mxCell>
        <mxCell id="Kf_SSCEO67K-IDZlS5Hx-7" value="100µs" style="text;html=1;strokeColor=none;fillColor=none;align=center;verticalAlign=middle;whiteSpace=wrap;rounded=0;" vertex="1" parent="1">
          <mxGeometry x="-142" y="440" width="60" height="28" as="geometry" />
        </mxCell>
        <mxCell id="Kf_SSCEO67K-IDZlS5Hx-8" value="200µs" style="text;html=1;strokeColor=none;fillColor=none;align=center;verticalAlign=middle;whiteSpace=wrap;rounded=0;" vertex="1" parent="1">
          <mxGeometry x="-142" y="380" width="60" height="28" as="geometry" />
        </mxCell>
        <mxCell id="Kf_SSCEO67K-IDZlS5Hx-9" value="600µs" style="text;html=1;strokeColor=none;fillColor=none;align=center;verticalAlign=middle;whiteSpace=wrap;rounded=0;" vertex="1" parent="1">
          <mxGeometry x="-142" y="160" width="60" height="28" as="geometry" />
        </mxCell>
        <mxCell id="Kf_SSCEO67K-IDZlS5Hx-10" value="400µs" style="text;html=1;strokeColor=none;fillColor=none;align=center;verticalAlign=middle;whiteSpace=wrap;rounded=0;" vertex="1" parent="1">
          <mxGeometry x="-142" y="270" width="60" height="28" as="geometry" />
        </mxCell>
        <mxCell id="Kf_SSCEO67K-IDZlS5Hx-11" value="500µs" style="text;html=1;strokeColor=none;fillColor=none;align=center;verticalAlign=middle;whiteSpace=wrap;rounded=0;" vertex="1" parent="1">
          <mxGeometry x="-142" y="210" width="60" height="28" as="geometry" />
        </mxCell>
        <mxCell id="Kf_SSCEO67K-IDZlS5Hx-12" value="300µs" style="text;html=1;strokeColor=none;fillColor=none;align=center;verticalAlign=middle;whiteSpace=wrap;rounded=0;" vertex="1" parent="1">
          <mxGeometry x="-142" y="328.5" width="60" height="23" as="geometry" />
        </mxCell>
        <mxCell id="Kf_SSCEO67K-IDZlS5Hx-51" value="" style="endArrow=none;html=1;rounded=0;fillColor=#f8cecc;strokeColor=#b85450;entryX=1;entryY=0.5;entryDx=0;entryDy=0;" edge="1" parent="1" target="Kf_SSCEO67K-IDZlS5Hx-101">
          <mxGeometry width="50" height="50" relative="1" as="geometry">
            <mxPoint x="-69" y="510" as="sourcePoint" />
            <mxPoint x="171.59000000000015" y="281.4240000000001" as="targetPoint" />
            <Array as="points">
              <mxPoint x="-19" y="380" />
              <mxPoint x="91" y="270" />
              <mxPoint x="171" y="280" />
            </Array>
          </mxGeometry>
        </mxCell>
        <mxCell id="Kf_SSCEO67K-IDZlS5Hx-52" value="" style="endArrow=none;html=1;rounded=0;fillColor=#60a917;strokeColor=#2D7600;" edge="1" parent="1" target="Kf_SSCEO67K-IDZlS5Hx-101">
          <mxGeometry width="50" height="50" relative="1" as="geometry">
            <mxPoint x="-69" y="510" as="sourcePoint" />
            <mxPoint x="168.26000000000022" y="271.00800000000004" as="targetPoint" />
            <Array as="points">
              <mxPoint x="-49" y="370" />
              <mxPoint x="-19" y="330" />
              <mxPoint x="21" y="270" />
              <mxPoint x="141" y="250" />
            </Array>
          </mxGeometry>
        </mxCell>
        <mxCell id="Kf_SSCEO67K-IDZlS5Hx-53" value="" style="endArrow=none;html=1;rounded=0;exitX=0.048;exitY=1.001;exitDx=0;exitDy=0;exitPerimeter=0;fillColor=#f8cecc;strokeColor=#bb00bb;entryX=1.008;entryY=0.779;entryDx=0;entryDy=0;entryPerimeter=0;" edge="1" parent="1" target="Kf_SSCEO67K-IDZlS5Hx-150">
          <mxGeometry width="50" height="50" relative="1" as="geometry">
            <mxPoint x="448" y="511" as="sourcePoint" />
            <mxPoint x="810" y="299" as="targetPoint" />
            <Array as="points">
              <mxPoint x="510" y="400" />
              <mxPoint x="600" y="390" />
              <mxPoint x="710" y="370" />
            </Array>
          </mxGeometry>
        </mxCell>
        <mxCell id="Kf_SSCEO67K-IDZlS5Hx-54" value="" style="endArrow=none;html=1;rounded=0;fillColor=#f8cecc;strokeColor=#b85450;entryX=1.003;entryY=0.062;entryDx=0;entryDy=0;entryPerimeter=0;" edge="1" parent="1" target="Kf_SSCEO67K-IDZlS5Hx-156">
          <mxGeometry width="50" height="50" relative="1" as="geometry">
            <mxPoint x="450" y="511" as="sourcePoint" />
            <mxPoint x="810" y="311" as="targetPoint" />
            <Array as="points">
              <mxPoint x="510" y="420" />
              <mxPoint x="620" y="410" />
              <mxPoint x="670" y="400" />
              <mxPoint x="700" y="410" />
              <mxPoint x="730" y="420" />
              <mxPoint x="750" y="420" />
            </Array>
          </mxGeometry>
        </mxCell>
        <mxCell id="Kf_SSCEO67K-IDZlS5Hx-55" value="" style="endArrow=none;html=1;rounded=0;fillColor=#60a917;strokeColor=#2D7600;entryX=1;entryY=0.5;entryDx=0;entryDy=0;" edge="1" parent="1" target="Kf_SSCEO67K-IDZlS5Hx-156">
          <mxGeometry width="50" height="50" relative="1" as="geometry">
            <mxPoint x="450" y="511" as="sourcePoint" />
            <mxPoint x="810" y="331" as="targetPoint" />
            <Array as="points">
              <mxPoint x="520" y="420" />
              <mxPoint x="570" y="420" />
              <mxPoint x="640" y="430" />
              <mxPoint x="740" y="440" />
            </Array>
          </mxGeometry>
        </mxCell>
        <mxCell id="Kf_SSCEO67K-IDZlS5Hx-173" value="Latency" style="endArrow=classic;html=1;rounded=0;" edge="1" parent="1">
          <mxGeometry relative="1" as="geometry">
            <mxPoint x="-158" y="420" as="sourcePoint" />
            <mxPoint x="-158" y="260" as="targetPoint" />
            <Array as="points">
              <mxPoint x="-158" y="379.5" />
            </Array>
            <mxPoint as="offset" />
          </mxGeometry>
        </mxCell>
        <mxCell id="Kf_SSCEO67K-IDZlS5Hx-175" value="Parallel Requests" style="endArrow=classic;html=1;rounded=0;" edge="1" parent="1">
          <mxGeometry x="0.0435" relative="1" as="geometry">
            <mxPoint x="-3" y="560" as="sourcePoint" />
            <mxPoint x="227" y="560" as="targetPoint" />
            <Array as="points">
              <mxPoint x="197" y="560" />
            </Array>
            <mxPoint as="offset" />
          </mxGeometry>
        </mxCell>
        <mxCell id="Kf_SSCEO67K-IDZlS5Hx-177" value="1000" style="text;html=1;strokeColor=none;fillColor=none;align=center;verticalAlign=middle;whiteSpace=wrap;rounded=0;" vertex="1" parent="1">
          <mxGeometry x="260" y="510" width="60" height="30" as="geometry" />
        </mxCell>
        <mxCell id="Kf_SSCEO67K-IDZlS5Hx-178" value="800" style="text;html=1;strokeColor=none;fillColor=none;align=center;verticalAlign=middle;whiteSpace=wrap;rounded=0;" vertex="1" parent="1">
          <mxGeometry x="187" y="510" width="60" height="30" as="geometry" />
        </mxCell>
        <mxCell id="Kf_SSCEO67K-IDZlS5Hx-179" value="600" style="text;html=1;strokeColor=none;fillColor=none;align=center;verticalAlign=middle;whiteSpace=wrap;rounded=0;" vertex="1" parent="1">
          <mxGeometry x="107" y="511" width="60" height="30" as="geometry" />
        </mxCell>
        <mxCell id="Kf_SSCEO67K-IDZlS5Hx-180" value="400" style="text;html=1;strokeColor=none;fillColor=none;align=center;verticalAlign=middle;whiteSpace=wrap;rounded=0;" vertex="1" parent="1">
          <mxGeometry x="37" y="510" width="60" height="30" as="geometry" />
        </mxCell>
        <mxCell id="Kf_SSCEO67K-IDZlS5Hx-181" value="200" style="text;html=1;strokeColor=none;fillColor=none;align=center;verticalAlign=middle;whiteSpace=wrap;rounded=0;" vertex="1" parent="1">
          <mxGeometry x="-43" y="510" width="60" height="30" as="geometry" />
        </mxCell>
        <mxCell id="Kf_SSCEO67K-IDZlS5Hx-183" value="Parallel Requests" style="endArrow=classic;html=1;rounded=0;" edge="1" parent="1">
          <mxGeometry x="0.0435" relative="1" as="geometry">
            <mxPoint x="528" y="561" as="sourcePoint" />
            <mxPoint x="758" y="561" as="targetPoint" />
            <Array as="points">
              <mxPoint x="728" y="561" />
            </Array>
            <mxPoint as="offset" />
          </mxGeometry>
        </mxCell>
        <mxCell id="Kf_SSCEO67K-IDZlS5Hx-184" value="1000" style="text;html=1;strokeColor=none;fillColor=none;align=center;verticalAlign=middle;whiteSpace=wrap;rounded=0;" vertex="1" parent="1">
          <mxGeometry x="791" y="511" width="60" height="30" as="geometry" />
        </mxCell>
        <mxCell id="Kf_SSCEO67K-IDZlS5Hx-185" value="800" style="text;html=1;strokeColor=none;fillColor=none;align=center;verticalAlign=middle;whiteSpace=wrap;rounded=0;" vertex="1" parent="1">
          <mxGeometry x="718" y="511" width="60" height="30" as="geometry" />
        </mxCell>
        <mxCell id="Kf_SSCEO67K-IDZlS5Hx-186" value="600" style="text;html=1;strokeColor=none;fillColor=none;align=center;verticalAlign=middle;whiteSpace=wrap;rounded=0;" vertex="1" parent="1">
          <mxGeometry x="638" y="512" width="60" height="30" as="geometry" />
        </mxCell>
        <mxCell id="Kf_SSCEO67K-IDZlS5Hx-187" value="400" style="text;html=1;strokeColor=none;fillColor=none;align=center;verticalAlign=middle;whiteSpace=wrap;rounded=0;" vertex="1" parent="1">
          <mxGeometry x="568" y="511" width="60" height="30" as="geometry" />
        </mxCell>
        <mxCell id="Kf_SSCEO67K-IDZlS5Hx-188" value="200" style="text;html=1;strokeColor=none;fillColor=none;align=center;verticalAlign=middle;whiteSpace=wrap;rounded=0;" vertex="1" parent="1">
          <mxGeometry x="488" y="511" width="60" height="30" as="geometry" />
        </mxCell>
        <mxCell id="Kf_SSCEO67K-IDZlS5Hx-189" value="100µs" style="text;html=1;strokeColor=none;fillColor=none;align=center;verticalAlign=middle;whiteSpace=wrap;rounded=0;" vertex="1" parent="1">
          <mxGeometry x="393" y="433" width="60" height="28" as="geometry" />
        </mxCell>
        <mxCell id="Kf_SSCEO67K-IDZlS5Hx-190" value="200µs" style="text;html=1;strokeColor=none;fillColor=none;align=center;verticalAlign=middle;whiteSpace=wrap;rounded=0;" vertex="1" parent="1">
          <mxGeometry x="393" y="373" width="60" height="28" as="geometry" />
        </mxCell>
        <mxCell id="Kf_SSCEO67K-IDZlS5Hx-191" value="600µs" style="text;html=1;strokeColor=none;fillColor=none;align=center;verticalAlign=middle;whiteSpace=wrap;rounded=0;" vertex="1" parent="1">
          <mxGeometry x="393" y="153" width="60" height="28" as="geometry" />
        </mxCell>
        <mxCell id="Kf_SSCEO67K-IDZlS5Hx-192" value="400µs" style="text;html=1;strokeColor=none;fillColor=none;align=center;verticalAlign=middle;whiteSpace=wrap;rounded=0;" vertex="1" parent="1">
          <mxGeometry x="393" y="263" width="60" height="28" as="geometry" />
        </mxCell>
        <mxCell id="Kf_SSCEO67K-IDZlS5Hx-193" value="500µs" style="text;html=1;strokeColor=none;fillColor=none;align=center;verticalAlign=middle;whiteSpace=wrap;rounded=0;" vertex="1" parent="1">
          <mxGeometry x="393" y="203" width="60" height="28" as="geometry" />
        </mxCell>
        <mxCell id="Kf_SSCEO67K-IDZlS5Hx-194" value="300µs" style="text;html=1;strokeColor=none;fillColor=none;align=center;verticalAlign=middle;whiteSpace=wrap;rounded=0;" vertex="1" parent="1">
          <mxGeometry x="393" y="322.5" width="60" height="23" as="geometry" />
        </mxCell>
        <mxCell id="Kf_SSCEO67K-IDZlS5Hx-195" value="Latency" style="endArrow=classic;html=1;rounded=0;" edge="1" parent="1">
          <mxGeometry relative="1" as="geometry">
            <mxPoint x="370" y="408" as="sourcePoint" />
            <mxPoint x="370" y="248" as="targetPoint" />
            <Array as="points">
              <mxPoint x="370" y="367.5" />
            </Array>
            <mxPoint as="offset" />
          </mxGeometry>
        </mxCell>
      </root>
    </mxGraphModel>
  </diagram>
</mxfile>
